{  "asset": {    "version": "2.0",    "generator": "THREE.GLTFExporter"  },  "scenes": [    {      "name": "AuxScene",      "nodes": [        1      ]    }  ],  "scene": 0,  "nodes": [    {      "mesh": 0    },    {      "children": [        0      ]    }  ],  "bufferViews": [    {      "buffer": 0,      "byteOffset": 0,      "byteLength": 157824,      "target": 34962,      "byteStride": 12    },    {      "buffer": 0,      "byteOffset": 157824,      "byteLength": 157824,      "target": 34962,      "byteStride": 12    },    {      "buffer": 0,      "byteOffset": 315648,      "byteLength": 105216,      "target": 34962,      "byteStride": 8    }  ],  "buffers": [    {      "byteLength": 420864,      "uri": "data:application/octet-stream;base64,"    }  ],  "accessors": [    {      "bufferView": 0,      "componentType": 5126,      "count": 13152,      "max": [        59.9999885559082,        59.999969482421875,        22.622716903686523      ],      "min": [        -59.9999885559082,        -59.999969482421875,        -22.62271499633789      ],      "type": "VEC3"    },    {      "bufferView": 1,      "componentType": 5126,      "count": 13152,      "max": [        1,        1,        1      ],      "min": [        -1,        -1,        -1      ],      "type": "VEC3"    },    {      "bufferView": 2,      "componentType": 5126,      "count": 13152,      "max": [        1,        1      ],      "min": [        0,        0      ],      "type": "VEC2"    }  ],  "materials": [    {      "pbrMetallicRoughness": {        "baseColorFactor": [          0.025643776798733704,          0.025643776798733704,          0.025643776798733704,          1        ],        "metallicFactor": 0.5,        "roughnessFactor": 0.5      },      "name": "mat0"    },    {      "pbrMetallicRoughness": {        "baseColorFactor": [          0.6038273388475408,          0.6038273388475408,          0.6038273388475408,          1        ],        "metallicFactor": 0.5,        "roughnessFactor": 0.5      },      "name": "mat1"    },    {      "pbrMetallicRoughness": {        "baseColorFactor": [          0.16326297439099893,          0.16326297439099893,          0.16326297439099893,          0.96154        ],        "metallicFactor": 0.5,        "roughnessFactor": 0.5      },      "alphaMode": "BLEND",      "name": "mat2"    }  ],  "meshes": [    {      "primitives": [        {          "mode": 4,          "attributes": {            "POSITION": 0,            "NORMAL": 1,            "TEXCOORD_0": 2          },          "material": 0        },        {          "mode": 4,          "attributes": {            "POSITION": 0,            "NORMAL": 1,            "TEXCOORD_0": 2          },          "material": 1        },        {          "mode": 4,          "attributes": {            "POSITION": 0,            "NORMAL": 1,            "TEXCOORD_0": 2          },          "material": 2        }      ]    }  ]}